Coordinates
version=1
nRows=10
nColumns=40
inDegrees=yes

Units are S.I. units (second, meters, Newtons, ...)
If the header above contains a line with 'inDegrees', this indicates whether rotational values are in degrees (yes) or radians (no).

endheader
time	pelvis_tilt	pelvis_list	pelvis_rotation	pelvis_tx	pelvis_ty	pelvis_tz	hip_flexion_r	hip_adduction_r	hip_rotation_r	knee_angle_r	knee_angle_r_beta	ankle_angle_r	subtalar_angle_r	mtp_angle_r	hip_flexion_l	hip_adduction_l	hip_rotation_l	knee_angle_l	knee_angle_l_beta	ankle_angle_l	subtalar_angle_l	mtp_angle_l	lumbar_extension	lumbar_bending	lumbar_rotation	arm_flex_r	arm_add_r	arm_rot_r	elbow_flex_r	pro_sup_r	wrist_flex_r	wrist_dev_r	arm_flex_l	arm_add_l	arm_rot_l	elbow_flex_l	pro_sup_l	wrist_flex_l	wrist_dev_l
      2.75000000	      3.09634839	      5.00657240	      2.37953101	     -0.29572317	      1.08888619	     -0.79198972	      4.06535921	     -2.83278048	    -11.85164178	     16.41284178	      0.28645813	     -3.66794250	      0.00000000	      0.00000000	     19.40087209	     -8.82076776	     -2.25735341	     56.51583185	      0.98638735	      2.88220000	      0.00000000	      0.00000000	     -8.78811763	      1.73632612	      2.80082973	     89.92139424	    -18.44330473	     29.83050492	     34.37325034	     83.03685924	      0.00000000	      0.00000000	     89.91220126	    -10.33002384	     34.11445769	     36.86239331	     85.04491349	      0.00000000	      0.00000000
      2.75500000	      3.17860858	      5.11842132	      2.36067839	     -0.29579330	      1.08907863	     -0.79173893	      3.97267802	     -2.93772657	    -11.84822326	     16.39914609	      0.28621909	     -3.69962493	      0.00000000	      0.00000000	     19.44530313	     -8.67476099	     -2.25515068	     57.54327239	      1.00431957	      3.01413025	      0.00000000	      0.00000000	     -8.89225911	      1.62582337	      2.80267466	     89.92162858	    -18.44505859	     29.81326575	     34.40281318	     83.06776307	      0.00000000	      0.00000000	     89.91253452	    -10.32106767	     34.11587001	     36.86753551	     85.02304587	      0.00000000	      0.00000000
      2.76000000	      3.09754844	      5.05587041	      2.41445809	     -0.29600149	      1.08892613	     -0.79146570	      4.06693025	     -2.85825667	    -11.92087387	     16.38868375	      0.28603649	     -3.67791465	      0.00000000	      0.00000000	     19.75345941	     -8.70168941	     -2.09761016	     58.71437003	      1.02475908	      3.09606743	      0.00000000	      0.00000000	     -8.81680628	      1.69366552	      2.77809805	     89.92128487	    -18.44033324	     29.77828928	     34.43088010	     83.14419117	      0.00000000	      0.00000000	     89.91178711	    -10.31092138	     34.08880168	     36.88176132	     84.96751956	      0.00000000	      0.00000000
      2.76500000	      3.20917696	      5.17143238	      2.35264989	     -0.29607941	      1.08915316	     -0.79115790	      3.95653709	     -2.96832540	    -11.90453138	     16.39707232	      0.28618290	     -3.72790762	      0.00000000	      0.00000000	     19.72167781	     -8.53902932	     -2.08619039	     59.68172797	      1.04164266	      3.16851364	      0.00000000	      0.00000000	     -8.94216404	      1.58187915	      2.82422736	     89.92149664	    -18.41249611	     29.78777331	     34.41567700	     83.16045070	      0.00000000	      0.00000000	     89.91203980	    -10.31885070	     34.08309765	     36.87685075	     84.95961874	      0.00000000	      0.00000000
      2.77000000	      3.27254762	      5.27037693	      2.34266150	     -0.29616318	      1.08931537	     -0.79091517	      3.88534956	     -3.06193184	    -11.89484073	     16.39034455	      0.28606548	     -3.75981290	      0.00000000	      0.00000000	     19.78554315	     -8.42024433	     -2.11243472	     60.74519267	      1.06020362	      3.25837170	      0.00000000	      0.00000000	     -9.01569724	      1.47646574	      2.82446935	     89.92166717	    -18.41024055	     29.78656759	     34.41270291	     83.17574163	      0.00000000	      0.00000000	     89.91212006	    -10.29844996	     34.08550070	     36.88012471	     84.95489342	      0.00000000	      0.00000000
      2.77500000	      3.29934172	      5.33567457	      2.31220429	     -0.29624844	      1.08937243	     -0.79059732	      3.86005918	     -3.11368570	    -11.89310392	     16.37948778	      0.28587599	     -3.77227607	      0.00000000	      0.00000000	     19.86451708	     -8.32015482	     -2.09510509	     61.76279702	      1.07796416	      3.32188060	      0.00000000	      0.00000000	     -9.05275034	      1.40052888	      2.85211609	     89.92140951	    -18.40615011	     29.78541983	     34.41515111	     83.19067456	      0.00000000	      0.00000000	     89.91204012	    -10.29004083	     34.07726850	     36.88659479	     84.94920771	      0.00000000	      0.00000000
      2.78000000	      3.31011172	      5.38245324	      2.30065885	     -0.29632335	      1.08938018	     -0.79031166	      3.85036678	     -3.14531728	    -11.87718816	     16.37717288	      0.28583559	     -3.76877839	      0.00000000	      0.00000000	     19.97728478	     -8.24396903	     -2.07142445	     62.80528789	      1.09615906	      3.39108127	      0.00000000	      0.00000000	     -9.06799928	      1.34493799	      2.86528067	     89.92148535	    -18.40383713	     29.78404684	     34.41999615	     83.20592462	      0.00000000	      0.00000000	     89.91220671	    -10.27530397	     34.05898539	     36.90172313	     84.94305099	      0.00000000	      0.00000000
      2.78500000	      3.03493893	      5.16787980	      2.38087143	     -0.29661080	      1.08888606	     -0.79004903	      4.19698549	     -2.90540297	    -11.89943744	     16.43348950	      0.28681850	     -3.69116333	      0.00000000	      0.00000000	     20.52111737	     -8.44112268	     -1.94003958	     63.99038603	      1.11684293	      3.48502032	      0.00000000	      0.00000000	     -8.77833631	      1.56162584	      2.86444215	     89.92091330	    -18.44874853	     29.79684441	     34.45512713	     83.26876315	      0.00000000	      0.00000000	     89.91138971	    -10.22367662	     34.03678086	     36.88547840	     84.92346898	      0.00000000	      0.00000000
      2.79000000	      3.12138252	      5.30516549	      2.30999875	     -0.29669437	      1.08903897	     -0.78984500	      4.11850542	     -3.04678020	    -11.87715399	     16.44326503	      0.28698911	     -3.73188659	      0.00000000	      0.00000000	     20.48460799	     -8.24105741	     -1.94953195	     64.94358314	      1.13347935	      3.46954603	      0.00000000	      0.00000000	     -8.87882330	      1.42547250	      2.90934657	     89.92120392	    -18.42967976	     29.80345858	     34.45626724	     83.28069525	      0.00000000	      0.00000000	     89.91146355	    -10.22694710	     34.04249563	     36.86556990	     84.92190571	      0.00000000	      0.00000000
      2.79500000	      3.18356008	      5.40871572	      2.27268864	     -0.29669996	      1.08916673	     -0.78958230	      4.05731738	     -3.14364126	    -11.85940670	     16.45597234	      0.28721090	     -3.74222817	      0.00000000	      0.00000000	     20.46208491	     -8.09774487	     -1.96488267	     65.86072807	      1.14948655	      3.44404202	      0.00000000	      0.00000000	     -8.94712209	      1.31537910	      2.93532547	     89.92108108	    -18.42776485	     29.80378743	     34.45341949	     83.29089802	      0.00000000	      0.00000000	     89.91142201	    -10.22040075	     34.04725446	     36.85384711	     84.92082628	      0.00000000	      0.00000000
